<?xml version="1.0" encoding="UTF-8"?><svg id="Layer_1" xmlns="http://www.w3.org/2000/svg" viewBox="0 0 478.6 478.6"><defs><style>.cls-1{fill:#619e45;}.cls-2{fill:#bb6d29;}.cls-3{stroke-width:20px;}.cls-3,.cls-4{fill:none;stroke:#141110;stroke-miterlimit:10;}.cls-4{stroke-width:22px;}.cls-5{fill:#307db9;}.cls-6{fill:#b53d26;}.cls-7{fill:#c58b32;}</style></defs><circle class="cls-5" cx="239.3" cy="239.3" r="221"/><path class="cls-2" d="M388.52,249.11c-35.59-2.53-148.82-43.37-170.36-54.13-24.93-12.44-76.75-23.97-85.25-24.98v-.17c29.37-.4,42-2.01,50.3-4.24,66.77-18.01,84.29-28,139.59-32.29,23.36-1.82,85.38,5.1,129.99,24.95,9.57,25.19,14.81,52.51,14.81,81.05,0,5.89-.22,11.73-.67,17.5-21.75-2.82-48.78-5.61-78.42-7.59v-.1Z"/><path class="cls-7" d="M466.93,256.8c-2.58,34.18-12.7,66.25-28.69,94.57-27.79-13.27-80.64-30.64-131.07-34.74-111.94-9.1-211.94,50.32-241.91,70.42h-.01c-22.63-26.63-39.26-58.53-47.79-93.6,54.99-16.7,139.83-37.9,223.24-44.53,48.89-3.88,101.54-2.79,147.81.29,29.64,1.98,56.67,4.77,78.42,7.59Z"/><path class="cls-1" d="M438.24,351.37c-39.16,69.39-113.58,116.23-198.94,116.23-69.74,0-132.17-31.26-174.04-80.55,29.97-20.1,129.97-79.52,241.91-70.42,50.43,4.1,103.28,21.47,131.07,34.74Z"/><path class="cls-6" d="M388.52,249.11v.1c-46.28-3.08-98.93-4.17-147.82-.29-83.41,6.63-168.25,27.83-223.24,44.53-4.22-17.36-6.46-35.49-6.46-54.15,0-24.19,3.76-47.5,10.73-69.38,13.77.32,47.49-.48,71.89-.16,15.71.2,28.61.21,39.29.07v.17c8.5,1.01,60.32,12.54,85.25,24.98,21.54,10.76,134.77,51.6,170.36,54.13Z"/><path class="cls-4" d="M65.25,387.05c-22.63-26.63-39.26-58.53-47.79-93.6-4.22-17.36-6.46-35.49-6.46-54.15,0-24.19,3.76-47.5,10.73-69.38C51.1,77.75,137.4,11,239.3,11s180.8,61.17,213.49,147.25c9.57,25.19,14.81,52.51,14.81,81.05,0,5.89-.22,11.73-.67,17.5-2.58,34.18-12.7,66.25-28.69,94.57-39.16,69.39-113.58,116.23-198.94,116.23-69.74,0-132.17-31.26-174.04-80.55"/><path class="cls-4" d="M438.24,351.37c-27.79-13.27-80.64-30.64-131.07-34.74-111.94-9.1-211.94,50.32-241.91,70.42h-.01"/><path class="cls-3" d="M17.46,293.45c54.99-16.7,139.83-37.9,223.24-44.53,48.89-3.88,101.54-2.79,147.81.29,29.64,1.98,56.67,4.77,78.42,7.59.23.03.45.06.67.09"/><path class="cls-4" d="M452.8,158.25h-.01c-44.61-19.85-106.63-26.77-129.99-24.95-55.3,4.29-72.82,14.28-139.59,32.29-8.3,2.23-20.93,3.84-50.3,4.24-10.68.14-23.58.13-39.29-.07-24.4-.32-58.12.48-71.89.16"/><path class="cls-3" d="M389.35,249.16c-.27-.02-.55-.03-.83-.05-35.59-2.53-148.82-43.37-170.36-54.13-24.93-12.44-76.75-23.97-85.25-24.98"/></svg>